General                          : ChattChitto RG - Movies [R2L]
==========
Complete name                    : Tron Legacy 2010 720p BRRip H264 [ChattChitto RG]
Format                           : MPEG-4
Format profile                   : Base Media
Codec ID                         : isom
File size                        : 2.32 GiB
Duration                         : 2h 5mn
Overall bit rate                 : 2 655 Kbps
Encoded date                     : UTC 2011-03-10 22:02:41

Video
==========
ID                               : 1
Format                           : AVC
Format/Info                      : Advanced Video Codec
Format profile                   : High@L4.1
Format settings, CABAC           : Yes
Format settings, ReFrames        : 4 frames
Codec ID                         : avc1
Codec ID/Info                    : Advanced Video Coding
Duration                         : 2h 5mn
Bit rate mode                    : Variable
Bit rate                         : 2 300 Kbps
Maximum bit rate                 : 24.4 Mbps
Width                            : 1 280 pixels
Height                           : 720 pixels
Display aspect ratio             : 16:9
Frame rate mode                  : Constant
Frame rate                       : 23.976 fps
Color space                      : YUV
Chroma subsampling               : 4:2:0
Bit depth                        : 8 bits
Scan type                        : Progressive
Bits/(Pixel*Frame)               : 0.104
Stream size                      : 2.01 GiB (87%)
Writing library                  : x264 core 84 r1400M 20fa784
Encoded date                     : UTC 2011-03-10 21:31:00

Audio
==========
ID                               : 2
Format                           : AAC
Format/Info                      : Advanced Audio Codec
Format profile                   : LC
Codec ID                         : 40
Duration                         : 2h 5mn
Bit rate mode                    : Variable
Bit rate                         : 352.8 Kbps
Maximum bit rate                 : 488 Kbps
Channel(s)                       : 6 channels
Channel positions                : Front: L C R, Side: L R, LFE
Sampling rate                    : 48.0 KHz
Compression mode                 : Lossy
Stream size                      : 315 MiB (13%)
Encoded date                     : UTC 2011-03-10 22:03:53

Subtitles                        : English | French | Spanish


----------------------------------------------------
IMDB Link: http://www.imdb.com/title/tt1104001/
----------------------------------------------------



Screen Shots:
==============    
http://chattchitto.net/chattchittorg/movies/brrip/2011/tron_legacy/3.png 
http://chattchitto.net/chattchittorg/movies/brrip/2011/tron_legacy/4.png 
http://chattchitto.net/chattchittorg/movies/brrip/2011/tron_legacy/5.png 
http://chattchitto.net/chattchittorg/movies/brrip/2011/tron_legacy/6.png 
http://chattchitto.net/chattchittorg/movies/brrip/2011/tron_legacy/7.png 
http://chattchitto.net/chattchittorg/movies/brrip/2011/tron_legacy/8.png



ScreenShots Comparison:
=========================  
http://screenshotcomparison.com/comparison/34984



Plot:
======
The son of a virtual world designer goes looking for his father and ends up inside the digital world that his father designed. He meets his father's creation turned bad and a unique ally who was born inside the digital domain of The Grid.



Release Info:
==============
original name .... : Tron Legacy 2010 720p BRRip H264 [ChattChitto RG]
ripper.............: CHD
encoder............: Recalled2Life (R2L)
video codec........: H264/.MP4
video bitrate......: 2300 Kbps
audio codec........: AAC-LC
aspect ratio.......: 16:9
resolution.........: 1280 x 720
genre..............: Action | Adventure | Sci-Fi
runtime............: 2h 5mn
language...........: English
rating.............: PG
subtitles..........: English | French | Spanish
sample.............: Yes
2ch Audio..........: 2ch Audio for XBox Viewers
Compatibility .....: XBox | PS3 | WD Live



Source:
========
Tron:Legacy.2010.BluRay.1080p.DTS.x264-CHD  THANKS!



Notes:
=======
ChattChitto RG Encourages Burning this Film with ConvertXtoDVD and Playing with VLC media player.
XBox 360 | PS3 | WD Live - Compatible 
Enhanced for your viewing pleasure ;)